<svg id="Layer_1" enable-background="new 0 0 500 500" viewBox="0 0 500 500" xmlns="http://www.w3.org/2000/svg"><path clip-rule="evenodd" d="m105.233 251.706c-.255.609-1.417 1.439-.786 2.159.025.937.256 1.85.321 2.879.22.201-.468.58.559 1.163.072.055-.094.111.083.166 1.42.372 1.33.794 1.871.941.36.111.16.166.299.332.388.111 1.234.166 1.246.277 2.533.276 9.806.393 10.735-2.435.941-1.231-.781-2.526-.925-3.765-1.25-1.411.215-.714-1.368-2.934-.039-.055-.039-.055.006-.055.271-.055-.05-.111-.061-.166-.649-1.826-8.144-2.883-9.334-1.882 0 .111-.764.111-.731.166.072.055.465.221.227.277-.504.166-.681.443-.941.664-.166.055-.764.111-.526.166zm-23.883.111c-.266.664-1.417 1.495-.792 2.27.012.988.265 1.911.327 2.99-.251 1.012.939 1.534 1.91 1.827.238.277.122.388.598.498.365.111.155.166.293.332 2.492.684 10.659.707 11.72-1.827 1.451-1.271-.454-2.896-.664-4.318-.819-.684-.51-2.345-1.357-3.1.188 0 .094-.055.006-.055-.149-.277-.282-.554-.432-.775-2.527-1.147-6.628-2.241-8.963-1.329-.111.166-.111.166-.443.221-.925.076.879-.105-.83.886l-.698.277zm-23.894-.111c-.26.609-1.417 1.439-.786 2.159.011.94.256 1.849.321 2.879.203.185-.457.607.554 1.163.077.055-.089.111.088.166 1.457.383 1.31.79 1.871.941.36.111.16.166.299.332.388.111 1.229.166 1.235.277 4.058.34 14.191.417 9.86-6.034-.083-.055-.166-.111-.039-.166-1.248-1.39.204-.72-1.367-2.934-.039-.055-.044-.055 0-.055.277-.055-.044-.111-.055-.166-.644-1.815-8.159-2.888-9.334-1.882 0 .111-.775.111-.725.166.066.055.454.221.227.277-.52.166-.692.443-.958.664-.155.055-.753.111-.515.166zm320.263-6.145c1.661 16.609 14.095 30.67 27.98 38.975 11.305 7.308 33.04-18.657 36.063-28.677 10.264-21.702-11.908-45.175-32.021-28.843-2.903-2.188-7.874-1.785-10.746-.055 2.425 3.256 5.9 6.378 7.524 10.241 1.965 5.038 11.647-4.428 18.114-1.052 13.198 9.514-5.14 29.335-14.477 35.266-14.505-7.806-33.178-32.719-12.185-43.625-.227-.277-.57-.111-.781-.388.055-.443.631-.886-.044-1.052.642-.277 1.295-.221 1.849-.72-2.768-2.491-6.068-.055-9.013.332-7.177 3.198-12.691 11.593-12.263 19.598zm5.873-136.411c-13.695-12.13-29.583-22.494-45.368-32.277-13.381-10.35-18.267-4.908-17.517 10.464-.825 15.778-.194 31.611-.045 47.334-1.002 7.308 2.552 15.114 11.034 11.294 17.661-9.716 34.122-21.629 49.222-34.823.786-.443.133-.719.831-1.107.581-.332-.133-.388.493-.886-16.116 4.263-31.993 10.131-46.864 17.605-.631-12.733-.842-25.466-1.29-38.144 14.865 7.917 30.715 13.896 46.443 19.986.066-.111-.437-.332-.227-.443.293-.055 1.279.443 1.068.055.814.333 1.268.665 2.22.942zm-97.209 44.234c-.039-17.273.532-35.376.709-52.649 1.059-19.839-6.799-54.133 21.93-55.86 13.829-.277 27.575.83 41.366 1.052 14.517 1.279 29.397-.778 43.581 2.38-1.489.554-3.194.443-4.778.664 1.633.277.382.387-.199.997.482.388 1.484.221 2.093.443-116.745 16.1-88.409-24.114-91.241 99.375-.196 20.215 24.434 2.822 26.347 17.105.221 5.482.138 11.405.182 16.941 5.476-4.739 18.151-23.93 24.962-24.194 2.603.057 13.1-.22 15.851-.11 42.958.639 34.359 2.231 35.536-38.034.377-12.898.227-25.853 1.584-38.642 1.479-13.219 5.037-26.923-10.336-33.217 15.885-1.95 21.754 11.273 20.732 25.079.812 25.64 2.801 51.179 2.503 76.842-1.709 31.745-41.043 21.319-62.376 23.03-9.09 10.021-20.871 22.754-30.155 32.608-4.529 4.816-13.11.83-12.573-5.591.199-8.913-.044-17.716-.171-26.629-12.648 1.219-24.761-8.802-25.547-21.59zm-160.893-18.657c.055-.055.166-.111.227-.166-.066.055-.21.166-.227.166zm5.426 3.598c-.133.388-.056.222 0 0zm-15.889-36.871h-.266zm1.644-5.757c.072.055.221.166.282.221-.044-.055-.315-.277-.282-.221zm54.094 39.085c-.011 0-.011 0-.011 0 .028 0 .044 0 .011 0zm-4.949 3.709c-.027-.111-.089-.277-.116-.388.016.167.055.278.116.388zm14.316-41.964c-.005 0-.005 0-.005 0l.088-.055c-.011 0-.066 0-.083.055zm1.235 3.876c.066.055.116.055.166 0zm-33.544-26.851c.017-.498.493-.277.808-.775.382-.443.559 0 .908 0 .52-.221.797.111 1.168.443 1.805-6.034-6.278-7.142-9.057-2.491-2.768 4.484-4.949 9.245-7.535 13.785-2.826 5.19-12.116 1.492-17.19 2.437-11.853-2.603-18.945 14.227-8.897 20.981 3.361 2.491 7.059 5.259 10.441 7.751 3.615 1.993 2.729 3.598 1.589 6.976-1.129 4.484-3.643 10.076-3.975 14.671-.216 7.474 7.734 13.342 14.793 10.851 5.851-1.445 14.579-14.24 19.747-10.686 8.017 4.651 18.879 16.887 26.762 5.371 4.184-6.94-2.273-16.015-3.819-22.92-1.387-7.873 14.081-10.872 16.535-18.159 4.23-15.469-14.768-12.915-24.27-11.514-8.714.608-9.19-11.239-13.912-15.779-.144.388.188.83-.078 1.218-.559-.055-1.03-.775-.986.221-.504-.775-.692-1.716-1.44-2.325-1.24 3.986 1.7 7.751 1.794 11.626 2.952 13.554 11.724 14.128 23.451 15.114-11.809 6.809-17.151 14.948-11.687 28.401-9.705-8.526-19.371-8.636-29.115-.055 5.038-12.567 1.423-20.761-9.849-27.681 19.238.775 20.65-11.737 24.442-26.906-.251-.057-.628-.334-.628-.555zm-64.081 85.368c8.777 24.765 41.734 13.832 61.507 15.889l30.111 31.501c3.958 4.484 12.124 1.384 11.903-4.706 0-8.526-.254-19.266-.199-27.792 13.414.997 25.793-9.411 25.239-23.197-.081-17.098-.024-48.874-.482-65.548-.648-11.294 2.53-25.854-7.507-33.881-12.78-11.804-76.065-.868-95.394.498.604.277 1.6.111 2.082.443-.565.664-1.827.72-.188 1.052-1.589.222-3.294.111-4.772.609 26.667 3.536 54.394 2.144 81.42 3.49 6.273-.943 12.722 3.43 12.296 10.129-.188 27.847-.487 56.026-1.002 83.873-.731 9.91-11.377 8.083-18.391 8.138-11.549.72-6.904 15.224-7.574 22.864-4.696-3.923-18.779-23.228-24.32-22.422-9.047.001-25.932.056-34.934.056-17.096 1.163-16.492-4.54-16.204-19.266.138-18.989-1.805-37.757-2.087-56.69.011-12.014-4.578-27.404 10.796-31.501-26.26-8.333-21.027 37.667-22.821 53.147.325 17.713-2.302 35.821.521 53.314zm274.334 266.788c-2.724-44.4-15.784-88.302-31.872-129.602-11.183-23.418-41.145-21.868-62.841-28.069-4.363-.166-9.168 2.325-13.364-.166.797-.498 1.727-.498 2.613-.775-.958-.221-.144-.443.033-.996-.271-.332-.797-.166-1.124-.388.249-.664 1.523-.664 2.159-.941-1.262-.554-1.622-.609-3.682-1.052 16.342.653 28.956-14.815 33.616-29.23 2.956-11.848-.764-24.969-9.417-33.605-30.313-29.099-75.217 14.254-49.06 46.173 6.498 7.473 14.287 15.611 24.862 15.334-1.29.443-2.857.498-4.257.72 1.594.886 2.558 2.713 4.257 3.432-3.452 1.473-7.172 1.582-11.028 1.661-2.137-.166-4.08-1.771-6.217-1.107-61.908 6.968-61.803 24.295-78.203 78.671-6.833 27.291-15.248 55.526-14.152 83.816 2.065 16.83 25.334 11.515 37.037 9.688 23.263-4.54 25.671-31.335 38.438-29.231 2.978-12.18 11.637-22.089 13.912-34.324.604-3.709-.93-7.474-4.634-8.803-16.355-2.148-28.4 20.052-39.712 29.23-5.652 5.482-15.346-1.106-12.489-8.303 1.622-4.429 3.266-9.578 5.099-13.896 3.255-9.412 8.504-24.138 18.231-28.013 2.147 6.572-1.159 13.382-1.987 20.096 6.832-5.591 14.111-11.737 23.113-13.176-4.213-12.733-3.582-26.242-4.191-39.418-.956-21.335 19.874-20.754 35.46-20.815 18.488-.789 40.11-4.06 40.176 21.646-.598 13.508.365 27.514-4.723 40.358 7.828 1.495 14.51 6.477 20.633 11.294-.72-6.867-2.504-14.876 1.628-20.816.326.332.554.664 1.096.775.388.277.31.886.93 1.052 1.168.72 1.191 2.325 2.552 3.1 5.592 12.464 11.9 24.576 15.612 37.978 2.558 6.865-6.698 12.733-11.841 7.64-11.215-9.154-24.226-29.969-40.336-27.129-7.27 3.877-1.141 13.731 1.24 19.267 3.536 5.837 5.867 12.117 9.434 17.882.426.775 1.7 1.273 1.512 2.27-.232.554.576 1.273.703 1.772 7.07 0 15.501 20.706 27.1 25.134 11.456 5.04 45.681 12.016 43.684-9.134zm-115.717-51.818c.897-10.796-8.177-20.096-18.651-21.203-.255-5.536.542-11.405 1.329-16.83l.509-22.09c-.454-3.322 1.567-6.699 5.088-7.031 60.869 1.521 36.668-9.468 46.216 47.445-33.034 5.315-14.206 42.186 2.69 55.528-18.858.1-37.69-1.516-56.419.388 8.885-10.409 18.131-21.869 19.238-36.207zm130.028 37.867c13.216 59.988-69.352 51.584-89.105 12.456-22.15-.387-44.234.277-66.379.166-15.421 26.098-51.353 38.842-78.985 24.913-20.715-14.837-5.701-55.971-2.396-77.008 8.829-30.955 14.86-65.016 34.106-91.459 13.959-15.445 36.646-15.611 55.824-17.715-44.766-25.466-18.657-91.291 30.748-85.645 42.784 5.259 56.237 64.939 17.699 85.921 22.584 1.207 49.661 3.31 62.414 24.913 19.233 38.589 30.084 80.885 36.074 123.458zm95.095-123.955c3.98 38.923-37.19 29.271-62.421 30.614-42.111 1.602-53.827-.556-51.264-46.281-9.849-3.599-23.125-8.526-32.979-12.069-3.687-1.384-5.586-5.425-4.246-9.135 2.154-5.37 8.891-5.259 13.525-7.252 8.089-2.602 16.869-5.647 24.907-8.415-.379-23.376-2.476-48.368 29.547-45.065 19.491 1.39 39.435-.523 58.5 2.879-1.384.554-2.978.443-4.462.664 1.545.277.343.388-.172.997.449.388 1.373.222 1.943.443-15.291 2.713-32.303 3.432-48.082 4.927-7.629 1.218-17.832-1.661-23.28 5.093-6.346 6.219 3.169 38.042-5.43 40.082-6.317 2.381-15.59 5.647-21.968 8.027 34.291 12.29 25.007 1.772 26.707 42.241 1.079 9.135 10.757 8.581 17.771 8.194 6.295-.111 24.415-.498 30.969-.498 5.193 0 15.728-.055 20.888-.111 5.27.332 12.805-.166 14.416-6.256 1.151-24.293-.16-48.877 2.214-73.078 2.595-12.424 2.038-24.169-11.515-29.397 7.103-1.716 14.527 1.771 19.011 7.418 3.986 6.809 2.63 15.335 3.311 22.975.554 21.039 2.537 41.91 2.11 63.003zm-344.295 29.951c-21.58.72-46.061.886-67.641.886-10.447-.332-20.512-7.751-22.876-18.269-1.017-24.534-.025-49.466 1.184-73.963 1.324-6.588.549-13.785 2.802-20.152 3.388-8.249 12.008-12.899 20.301-9.024-6.333 1.55-11.914 6.533-12.578 13.232.796 27.527 3.159 55.007 2.724 82.6-1.13 8.526 6.577 11.239 13.907 10.519 4.662.111 19.172-.166 24.055-.055 9.229-.166 22.322-.221 31.59-.166 5.691.498 13.946-.72 14.211-7.806 1.101-36.748-8.713-32.376 24.182-42.518-23.557-9.633-24.116-1.772-23.086-29.397-.347-7.516 2.776-18.518-7.103-21.093-22.367-3.329-45.78.047-67.901-3.931 1.384-.554 2.967-.443 4.445-.664-1.528-.277-.332-.388.188-.997-.448-.387-1.384-.221-1.943-.443 19.842-3.045 41.256-4.706 61.64-5.536 10.186-.277 20.838 7.142 22.15 17.882.631 8.913.288 18.103.532 27.127 9.845 3.167 23.544 7.822 33.4 11.294 7.46 2.078 6.291 10.024 1.257 11.792-8.288 2.824-25.732 9.024-33.721 12.014.133 19.873 4.86 43.457-21.719 46.668z" fill-rule="evenodd"/></svg>