<svg id="Capa_1" enable-background="new 0 0 512 512" height="512" viewBox="0 0 512 512" width="512" xmlns="http://www.w3.org/2000/svg"><g><g><circle cx="256" cy="267" fill="#ffe5c2" r="245"/></g><g><path d="m353 288.717c-3.859 0-7-3.14-7-7v-115c0-3.86 3.141-7 7-7h35.381v-133.929c0-14.242-11.546-25.788-25.789-25.788h-213.184c-14.243 0-25.788 11.546-25.788 25.788v62.28h62.885c3.859 0 7 3.14 7 7v81c0 3.86-3.141 7-7 7h-26.066c-2.136 0-4.127 1.149-5.196 3l-7.506 13c-.361.626-1.009 1-1.731 1s-1.37-.374-1.731-1l-7.506-13c-1.069-1.851-3.061-3-5.196-3h-7.951v47.068h35.303c3.859 0 7 3.14 7 7v99.932c0 3.86-3.141 7-7 7h-35.303v101.212c0 14.243 11.546 25.788 25.788 25.788h213.184c14.243 0 25.788-11.546 25.788-25.788v-156.563zm-13.269-144.648h-29.093c-2.136 0-4.127 1.149-5.196 3l-8.818 15.273c-.263.455-.733.727-1.259.727s-.996-.272-1.259-.728l-8.817-15.273c-1.069-1.851-3.061-3-5.196-3h-29.093c-3.859 0-7-3.14-7-7v-88.731c0-3.86 3.141-7 7-7h88.731c3.859 0 7 3.14 7 7v88.731c0 3.86-3.14 7.001-7 7.001z" fill="#596ca9"/><g fill="#465a94"><path d="m176 445.28h-17.996c-4.747 0-8.596-3.849-8.596-8.596v-92.615h-25.788v101.211c0 14.243 11.546 25.788 25.788 25.788h52.381c-14.243.001-25.789-11.545-25.789-25.788z"/><path d="m146.004 200.069c-.723 0-1.37-.374-1.731-1l-7.506-13c-1.069-1.851-3.061-3-5.196-3h-7.951v47.068h25.788v-33.965l-1.672 2.897c-.362.626-1.009 1-1.732 1z"/><path d="m123.619 25.788v62.28h25.788v-53.683c0-4.747 3.849-8.596 8.596-8.596h17.997c0-14.243 11.546-25.789 25.788-25.789h-52.381c-14.242 0-25.788 11.546-25.788 25.788z"/></g><path d="m353 288.717c-3.859 0-7-3.14-7-7v-115c0-3.86 3.141-7 7-7h9.592v-125.332c0-4.747-3.849-8.596-8.596-8.596h-33.506c-3.444 0-6.556 2.056-7.907 5.223l-2.187 5.127c-.839 1.966-2.017 3.717-3.449 5.198h32.784c3.859 0 7 3.14 7 7v88.731c0 3.86-3.141 7-7 7h-29.093c-2.136 0-4.127 1.149-5.196 3l-8.818 15.273c-.263.455-.733.727-1.259.727s-.996-.272-1.259-.728l-8.817-15.273c-1.069-1.851-3.061-3-5.196-3h-29.093c-3.859 0-7-3.14-7-7v-88.73c0-.606.085-1.19.231-1.751h-26.813c-6.888 0-13.111-4.111-15.814-10.447l-2.187-5.127c-1.351-3.168-4.463-5.223-7.907-5.223h-33.506c-4.747 0-8.596 3.849-8.596 8.596v53.684h37.096c3.859 0 7 3.14 7 7v81c0 3.86-3.141 7-7 7h-26.066c-2.136 0-4.127 1.149-5.196 3l-5.833 10.103v33.965h9.515c3.859 0 7 3.14 7 7v99.932c0 3.86-3.141 7-7 7h-9.515v92.615c0 4.748 3.849 8.596 8.596 8.596h195.992c4.747 0 8.596-3.849 8.596-8.596v-147.967z" fill="#fff"/><g fill="#f5f8f9"><path d="m180.816 436.684v-253.615h-20.378c-2.136 0-4.127 1.149-5.196 3l-5.833 10.103v33.965h9.515c3.859 0 7 3.14 7 7v99.932c0 3.86-3.141 7-7 7h-9.515v92.615c0 4.748 3.849 8.596 8.596 8.596h31.408c-4.749 0-8.597-3.848-8.597-8.596z"/><path d="m180.816 88.069v-53.684c0-4.747 3.849-8.596 8.596-8.596h-31.408c-4.747 0-8.596 3.849-8.596 8.596v53.684z"/></g><path d="m186.504 87.069h-81c-4.418 0-8 3.582-8 8v81c0 4.418 3.582 8 8 8h26.066c1.786 0 3.437.953 4.33 2.5l7.505 13c1.155 2 4.042 2 5.196 0l7.505-13c.893-1.547 2.544-2.5 4.33-2.5h26.066c4.418 0 8-3.582 8-8v-81c.002-4.419-3.58-8-7.998-8z" fill="#fd4755"/><g><path d="m118 176.069v-81c0-4.418 3.582-8 8-8h-20.496c-4.418 0-8 3.582-8 8v81c0 4.418 3.582 8 8 8h20.496c-4.418 0-8-3.582-8-8z" fill="#fb2b3a"/></g><g><g><g><circle cx="289.158" cy="27.387" fill="#9faced" r="7.5"/></g></g><g><g><path d="m263.263 34.887h-40.421c-4.143 0-7.5-3.358-7.5-7.5s3.357-7.5 7.5-7.5h40.421c4.143 0 7.5 3.358 7.5 7.5s-3.357 7.5-7.5 7.5z" fill="#9faced"/></g></g></g><g><g><path d="m298.046 411.069h-84.091c-18.2 0-32.955-14.754-32.955-32.954 0-18.2 14.754-32.954 32.955-32.954h84.091c18.2 0 32.954 14.754 32.954 32.954 0 18.199-14.754 32.954-32.954 32.954z" fill="#26a6fe"/></g><g><path d="m222 378.114c0-18.2 14.754-32.955 32.955-32.955h-41c-18.2 0-32.955 14.754-32.955 32.955 0 18.2 14.754 32.955 32.955 32.955h41c-18.201 0-32.955-14.755-32.955-32.955z" fill="#0593fc"/></g><g><path d="m295.772 385.614h-79.545c-4.143 0-7.5-3.358-7.5-7.5s3.357-7.5 7.5-7.5h79.545c4.143 0 7.5 3.358 7.5 7.5s-3.357 7.5-7.5 7.5z" fill="#fff"/></g></g><g><path d="m339.731 40.337h-88.731c-4.418 0-8 3.582-8 8v88.731c0 4.418 3.582 8 8 8h29.093c1.786 0 3.437.953 4.33 2.5l8.818 15.273c.944 1.636 3.305 1.636 4.25 0l8.818-15.273c.893-1.547 2.544-2.5 4.33-2.5h29.093c4.418 0 8-3.582 8-8v-88.731c-.001-4.418-3.582-8-8.001-8z" fill="#fed402"/><g><path d="m269.269 137.069v-88.732c0-4.418 3.582-8 8-8h-26.269c-4.418 0-8 3.582-8 8v88.731c0 4.418 3.582 8 8 8h26.269c-4.419.001-8-3.581-8-7.999z" fill="#fac600"/></g><g><path d="m298.923 63.274 7.518 15.233c.489.99 1.433 1.676 2.525 1.835l16.81 2.443c2.751.4 3.849 3.78 1.859 5.721l-12.164 11.857c-.79.771-1.151 1.881-.965 2.969l2.872 16.742c.47 2.74-2.406 4.829-4.866 3.536l-15.036-7.905c-.977-.514-2.144-.514-3.121 0l-15.036 7.905c-2.461 1.294-5.336-.796-4.866-3.536l2.872-16.742c.187-1.088-.174-2.198-.965-2.969l-12.164-11.857c-1.991-1.94-.892-5.321 1.859-5.721l16.81-2.443c1.092-.159 2.037-.845 2.525-1.835l7.518-15.233c1.23-2.493 4.785-2.493 6.015 0z" fill="#fff"/></g><g><path d="m298.923 63.274 7.518 15.233c.489.99 1.433 1.676 2.525 1.835l16.81 2.443c2.751.4 3.849 3.78 1.859 5.721l-12.164 11.857c-.79.771-1.151 1.881-.965 2.969l2.872 16.742c.47 2.74-2.406 4.829-4.866 3.536l-15.036-7.905c-.977-.514-2.144-.514-3.121 0l-15.036 7.905c-2.461 1.294-5.336-.796-4.866-3.536l2.872-16.742c.187-1.088-.174-2.198-.965-2.969l-12.164-11.857c-1.991-1.94-.892-5.321 1.859-5.721l16.81-2.443c1.092-.159 2.037-.845 2.525-1.835l7.518-15.233c1.23-2.493 4.785-2.493 6.015 0z" fill="#fff"/></g><g><path d="m289.274 116.738 2.872-16.742c.187-1.088-.174-2.198-.965-2.969l-12.164-11.857c-1.229-1.198-1.278-2.942-.491-4.198l-12.472 1.812c-2.751.4-3.849 3.78-1.859 5.721l12.164 11.857c.79.771 1.151 1.881.965 2.969l-2.872 16.742c-.47 2.74 2.406 4.829 4.866 3.536l10.063-5.29c-.153-.485-.204-1.018-.107-1.581z" fill="#f5f8f9"/></g></g><g><g><path d="m319 206.069h-126c-4.418 0-8 3.582-8 8v81c0 4.418 3.582 8 8 8h42.21c1.786 0 3.437.953 4.33 2.5l13.862 24.01c1.155 2 4.041 2 5.196 0l13.862-24.01c.893-1.547 2.544-2.5 4.33-2.5h42.21c4.418 0 8-3.582 8-8v-81c0-4.419-3.582-8-8-8z" fill="#97d729"/></g><g><g><path d="m205 295.069v-81c0-4.418 3.582-8 8-8h-20c-4.418 0-8 3.582-8 8v81c0 4.418 3.582 8 8 8h20c-4.418 0-8-3.582-8-8z" fill="#8bc727"/></g></g><g><path d="m276.252 217.51c-5.437 4.704-12.515 7.559-20.252 7.559s-14.815-2.855-20.252-7.559c-14.172 5.379-24.248 19.077-24.248 35.135v17.424c0 2.761 2.239 5 5 5h79c2.761 0 5-2.239 5-5v-17.424c0-16.058-10.077-29.756-24.248-35.135z" fill="#26a6fe"/><path d="m245.997 223.403c-3.802-1.3-7.271-3.318-10.248-5.894-14.172 5.379-24.248 19.077-24.248 35.135v17.424c0 2.761 2.239 5 5 5h20.499c-2.761 0-5-2.239-5-5v-17.424c0-11.819 5.463-22.355 13.997-29.241z" fill="#0593fc"/><g><circle cx="256" cy="194.069" fill="#0593fc" r="32"/></g><g><path d="m248 194.069c0-13.428 8.275-24.917 20-29.665-3.707-1.501-7.755-2.335-12-2.335-17.673 0-32 14.327-32 32s14.327 32 32 32c4.245 0 8.293-.834 12-2.335-11.725-4.748-20-16.237-20-29.665z" fill="#0182fc"/></g></g></g><g><g><path d="m158.923 345.069h-100.923c-4.418 0-8-3.582-8-8v-99.932c0-4.418 3.582-8 8-8h100.923c4.418 0 8 3.582 8 8v99.932c0 4.418-3.582 8-8 8z" fill="#fd8087"/></g><g><path d="m81.077 337.069v-99.932c0-4.418 3.582-8 8-8h-31.077c-4.418 0-8 3.582-8 8v99.932c0 4.418 3.582 8 8 8h31.077c-4.418 0-8-3.582-8-8z" fill="#fe646f"/></g><g><g><path d="m130.21 267.34h-43.496c-4.143 0-7.5-3.358-7.5-7.5s3.357-7.5 7.5-7.5h43.496c4.143 0 7.5 3.358 7.5 7.5s-3.357 7.5-7.5 7.5z" fill="#fff"/></g><g><path d="m139.591 293.352h-62.259c-4.143 0-7.5-3.358-7.5-7.5s3.357-7.5 7.5-7.5h62.259c4.143 0 7.5 3.358 7.5 7.5s-3.358 7.5-7.5 7.5z" fill="#fff"/></g><g><path d="m139.591 319.365h-62.259c-4.143 0-7.5-3.358-7.5-7.5s3.357-7.5 7.5-7.5h62.259c4.143 0 7.5 3.358 7.5 7.5s-3.358 7.5-7.5 7.5z" fill="#fff"/></g></g></g><g><g><path d="m146.004 162.689c-.55 0-1.078-.218-1.467-.608l-26.352-26.352c-3.019-3.018-4.681-7.031-4.681-11.3s1.663-8.282 4.681-11.3c3.018-3.019 7.031-4.681 11.3-4.681 4.268 0 8.282 1.663 11.3 4.681l5.219 5.218 5.219-5.219c3.018-3.018 7.031-4.681 11.3-4.681s8.282 1.663 11.301 4.681c3.018 3.018 4.681 7.031 4.681 11.3 0 4.268-1.663 8.282-4.681 11.3l-26.352 26.352c-.39.391-.918.609-1.468.609z" fill="#fff"/></g><g><g><path d="m133.644 128.104c-3.018-3.018-4.681-7.031-4.681-11.3 0-2.957.815-5.783 2.309-8.249-.59-.065-1.185-.107-1.787-.107-4.269 0-8.282 1.663-11.3 4.681s-4.681 7.031-4.681 11.3 1.663 8.282 4.681 11.3l26.352 26.352c.389.389.917.608 1.467.608s1.078-.218 1.467-.608l10.076-10.076z" fill="#f5f8f9"/></g></g></g><g><g><path d="m468 289.717h-115c-4.418 0-8-3.582-8-8v-115c0-4.418 3.582-8 8-8h115c4.418 0 8 3.582 8 8v115c0 4.418-3.582 8-8 8z" fill="#26a6fe"/></g><g><path d="m381 281.717v-115c0-4.418 3.582-8 8-8h-36c-4.418 0-8 3.582-8 8v115c0 4.418 3.582 8 8 8h36c-4.418 0-8-3.582-8-8z" fill="#0593fc"/></g><g><g><path d="m389.224 264.337 15.783-22.076-.109-1.106-14.859-20.785c-.816-1.141-2.511-1.141-3.327 0l-29.644 41.465c-.967 1.353 0 3.234 1.664 3.234h29.069l1.805-.732z" fill="#d8ecfe"/></g><g><g><path d="m425.359 212.533-37.558 52.535h74.467c1.664 0 2.631-1.881 1.664-3.234l-35.246-49.301c-.816-1.141-2.511-1.141-3.327 0z" fill="#fff"/></g></g><path d="m428.686 212.533c-.816-1.141-2.511-1.141-3.327 0l-37.558 52.535h20.683l28.88-40.396z" fill="#f5f8f9"/></g><g><circle cx="377.399" cy="190.432" fill="#fff" r="14.637"/></g><path d="m373 190.432c0-6.28 3.963-11.621 9.518-13.698-1.595-.597-3.315-.939-5.119-.939-8.084 0-14.637 6.553-14.637 14.637s6.553 14.637 14.637 14.637c1.804 0 3.524-.342 5.119-.939-5.555-2.078-9.518-7.418-9.518-13.698z" fill="#f5f8f9"/></g></g></g></svg>