<svg clip-rule="evenodd" fill-rule="evenodd" height="512" stroke-linejoin="round" stroke-miterlimit="2" viewBox="0 0 32 32" width="512" xmlns="http://www.w3.org/2000/svg"><g transform="translate(-432 -336)"><g id="ICON"><g transform="matrix(1.25 0 0 1.25 -112 -87.25)"><path d="m448 340.2c-2.649 0-4.8 2.151-4.8 4.8s2.151 4.8 4.8 4.8 4.8-2.151 4.8-4.8-2.151-4.8-4.8-4.8zm0 1.6c1.766 0 3.2 1.434 3.2 3.2s-1.434 3.2-3.2 3.2-3.2-1.434-3.2-3.2 1.434-3.2 3.2-3.2z"/></g><path d="m435.876 357.999c-.179.31-.179.692 0 1.002 2.422 4.183 6.947 6.999 12.124 6.999s9.702-2.816 12.124-6.999c.179-.31.179-.692 0-1.002-2.422-4.183-6.947-6.999-12.124-6.999s-9.702 2.816-12.124 6.999zm2.038.501c2.137-3.308 5.858-5.5 10.086-5.5s7.949 2.192 10.086 5.5c-2.137 3.308-5.858 5.5-10.086 5.5s-7.949-2.192-10.086-5.5z"/></g></g></svg>